# xmcd CD database file
#
# Track frame offsets:
#	150
#	47730
#	84427
#	103847
#	137775
#	185425
#	221325
#	253667
#	291015
#	309225
#
# Disc length: 4617 seconds
#
# Revision: 3
# Processed by: cddbd v1.5.2PL0 Copyright (c) Steve Scherf et al.
# Submitted via: CDex 1.70beta3
#
DISCID=8a12070a
DTITLE=Ray Brown - Producer's Choice
DYEAR=2002
DGENRE=Jazz
TTITLE0=Tin Tin Deo from BassFace, 1993
TTITLE1=CRS-CRAFT from BassFace, 1993
TTITLE2=Tanga from Don't Get Sassy, 1994
TTITLE3=En Estate from Live At Scullers Jazz Club, 1997
TTITLE4=Bye Bye Blackbird from Live At Scullers Jazz Club, 1997
TTITLE5=Blue Monk from Super Bass, 1997
TTITLE6=St. Louis Blues from Some Of My Best Friends Are Tje Piano Players, 1995
TTITLE7=Lament from Live At Starbucks, 2000
TTITLE8=Get Happy from Super Bass 2, 2001
TTITLE9=Misterioso from Super Bass 2, 2001
EXTD=Ray Brown's Final Recording.  New York City, March 2002.    First CD \nis a DSD recording.    Includes a limited edition bonus CD:  A\nretrospective of Ray Brown's Telarc recordings chosen by his\nproducer.\nTelarc Jazz YEAR: 2002
EXTT0=1993\n
EXTT1=1993\n
EXTT2=1994\n
EXTT3=1997\n
EXTT4=1997\n
EXTT5=1997\n
EXTT6=1995\n
EXTT7=2000\n
EXTT8=2001\n
EXTT9=2001\n
PLAYORDER=
